<?xml version="1.0" encoding="UTF-8"?>
<svg xmlns="http://www.w3.org/2000/svg" width="720" height="1600" viewBox="0 0 720 1600">
  <defs>
    <linearGradient id="bg" x1="0" y1="0" x2="0" y2="1">
      <stop offset="0%" stop-color="#0a0a1f"/>
      <stop offset="55%" stop-color="#141029"/>
      <stop offset="100%" stop-color="#1d1538"/>
    </linearGradient>

    <linearGradient id="gold" x1="0" y1="0" x2="1" y2="1">
      <stop offset="0%" stop-color="#f6d27a"/>
      <stop offset="50%" stop-color="#e8b552"/>
      <stop offset="100%" stop-color="#b88532"/>
    </linearGradient>

    <radialGradient id="halo" cx="50%" cy="50%" r="50%">
      <stop offset="0%" stop-color="#e8b552" stop-opacity="0.35"/>
      <stop offset="60%" stop-color="#e8b552" stop-opacity="0.08"/>
      <stop offset="100%" stop-color="#e8b552" stop-opacity="0"/>
    </radialGradient>

    <filter id="soft" x="-20%" y="-20%" width="140%" height="140%">
      <feGaussianBlur stdDeviation="6"/>
    </filter>
  </defs>

  <rect width="720" height="1600" fill="url(#bg)"/>

  <!-- starfield -->
  <circle cx="353" cy="897" r="0.70" fill="#fff" opacity="0.40"/>
  <circle cx="319" cy="810" r="0.63" fill="#fff" opacity="0.78"/>
  <circle cx="424" cy="657" r="0.98" fill="#fff" opacity="0.72"/>
  <circle cx="473" cy="123" r="1.35" fill="#fff" opacity="0.39"/>
  <circle cx="484" cy="253" r="1.45" fill="#fff" opacity="0.54"/>
  <circle cx="127" cy="80" r="2.10" fill="#fff" opacity="0.83"/>
  <circle cx="87" cy="711" r="2.12" fill="#fff" opacity="0.36"/>
  <circle cx="302" cy="881" r="1.64" fill="#fff" opacity="0.42"/>
  <circle cx="123" cy="1577" r="1.26" fill="#fff" opacity="0.39"/>
  <circle cx="394" cy="529" r="0.76" fill="#fff" opacity="0.71"/>
  <circle cx="253" cy="560" r="0.64" fill="#fff" opacity="0.81"/>
  <circle cx="172" cy="1415" r="1.30" fill="#fff" opacity="0.39"/>
  <circle cx="434" cy="643" r="1.79" fill="#fff" opacity="0.64"/>
  <circle cx="98" cy="358" r="1.27" fill="#fff" opacity="0.30"/>
  <circle cx="34" cy="660" r="1.66" fill="#fff" opacity="0.64"/>
  <circle cx="688" cy="520" r="1.25" fill="#fff" opacity="0.55"/>
  <circle cx="316" cy="1341" r="1.27" fill="#fff" opacity="0.51"/>
  <circle cx="190" cy="379" r="1.76" fill="#fff" opacity="0.33"/>
  <circle cx="195" cy="1227" r="1.96" fill="#fff" opacity="0.83"/>
  <circle cx="667" cy="1377" r="1.77" fill="#fff" opacity="0.63"/>
  <circle cx="399" cy="39" r="1.05" fill="#fff" opacity="0.46"/>
  <circle cx="155" cy="630" r="1.67" fill="#fff" opacity="0.69"/>
  <circle cx="192" cy="1530" r="0.51" fill="#fff" opacity="0.47"/>
  <circle cx="422" cy="706" r="0.65" fill="#fff" opacity="0.84"/>
  <circle cx="329" cy="1396" r="1.50" fill="#fff" opacity="0.53"/>
  <circle cx="90" cy="1269" r="2.02" fill="#fff" opacity="0.41"/>
  <circle cx="18" cy="247" r="1.70" fill="#fff" opacity="0.67"/>
  <circle cx="475" cy="1391" r="0.89" fill="#fff" opacity="0.75"/>
  <circle cx="121" cy="60" r="0.64" fill="#fff" opacity="0.26"/>
  <circle cx="387" cy="1329" r="1.93" fill="#fff" opacity="0.34"/>
  <circle cx="356" cy="83" r="0.98" fill="#fff" opacity="0.54"/>
  <circle cx="46" cy="569" r="0.89" fill="#fff" opacity="0.43"/>
  <circle cx="569" cy="219" r="0.78" fill="#fff" opacity="0.25"/>
  <circle cx="449" cy="138" r="1.19" fill="#fff" opacity="0.32"/>
  <circle cx="344" cy="663" r="0.51" fill="#fff" opacity="0.70"/>
  <circle cx="325" cy="1182" r="1.07" fill="#fff" opacity="0.81"/>
  <circle cx="516" cy="1023" r="0.96" fill="#fff" opacity="0.47"/>
  <circle cx="56" cy="1410" r="0.64" fill="#fff" opacity="0.29"/>
  <circle cx="134" cy="486" r="0.55" fill="#fff" opacity="0.61"/>
  <circle cx="316" cy="604" r="1.42" fill="#fff" opacity="0.79"/>
  <circle cx="380" cy="674" r="0.70" fill="#fff" opacity="0.79"/>
  <circle cx="477" cy="798" r="2.04" fill="#fff" opacity="0.66"/>
  <circle cx="330" cy="1547" r="2.01" fill="#fff" opacity="0.50"/>
  <circle cx="358" cy="1124" r="1.84" fill="#fff" opacity="0.80"/>
  <circle cx="392" cy="1584" r="1.58" fill="#fff" opacity="0.75"/>
  <circle cx="317" cy="121" r="2.15" fill="#fff" opacity="0.58"/>
  <circle cx="470" cy="626" r="1.78" fill="#fff" opacity="0.72"/>
  <circle cx="362" cy="710" r="2.00" fill="#fff" opacity="0.68"/>
  <circle cx="37" cy="590" r="1.29" fill="#fff" opacity="0.84"/>
  <circle cx="474" cy="247" r="1.65" fill="#fff" opacity="0.35"/>
  <circle cx="144" cy="844" r="1.04" fill="#fff" opacity="0.26"/>
  <circle cx="691" cy="823" r="0.56" fill="#fff" opacity="0.48"/>
  <circle cx="132" cy="1052" r="0.90" fill="#fff" opacity="0.69"/>
  <circle cx="220" cy="1452" r="1.52" fill="#fff" opacity="0.49"/>
  <circle cx="598" cy="285" r="1.09" fill="#fff" opacity="0.50"/>
  <circle cx="644" cy="909" r="0.64" fill="#fff" opacity="0.35"/>
  <circle cx="349" cy="401" r="1.18" fill="#fff" opacity="0.56"/>
  <circle cx="238" cy="44" r="0.60" fill="#fff" opacity="0.69"/>
  <circle cx="328" cy="885" r="2.03" fill="#fff" opacity="0.31"/>
  <circle cx="292" cy="357" r="1.16" fill="#fff" opacity="0.27"/>
  <circle cx="92" cy="1166" r="1.95" fill="#fff" opacity="0.27"/>
  <circle cx="387" cy="446" r="1.09" fill="#fff" opacity="0.39"/>
  <circle cx="527" cy="787" r="0.89" fill="#fff" opacity="0.63"/>
  <circle cx="639" cy="1517" r="1.15" fill="#fff" opacity="0.82"/>
  <circle cx="578" cy="659" r="0.65" fill="#fff" opacity="0.38"/>
  <circle cx="96" cy="1158" r="1.50" fill="#fff" opacity="0.83"/>
  <circle cx="199" cy="564" r="1.05" fill="#fff" opacity="0.35"/>
  <circle cx="663" cy="991" r="1.84" fill="#fff" opacity="0.67"/>
  <circle cx="199" cy="937" r="0.72" fill="#fff" opacity="0.68"/>
  <circle cx="692" cy="975" r="1.07" fill="#fff" opacity="0.45"/>
  <circle cx="401" cy="907" r="0.71" fill="#fff" opacity="0.48"/>
  <circle cx="595" cy="1189" r="1.40" fill="#fff" opacity="0.57"/>
  <circle cx="439" cy="615" r="0.65" fill="#fff" opacity="0.33"/>
  <circle cx="272" cy="1476" r="1.78" fill="#fff" opacity="0.80"/>
  <circle cx="324" cy="1382" r="1.25" fill="#fff" opacity="0.30"/>
  <circle cx="640" cy="551" r="0.92" fill="#fff" opacity="0.40"/>
  <circle cx="37" cy="563" r="1.09" fill="#fff" opacity="0.84"/>
  <circle cx="586" cy="983" r="1.42" fill="#fff" opacity="0.28"/>
  <circle cx="333" cy="251" r="1.32" fill="#fff" opacity="0.44"/>
  <circle cx="175" cy="835" r="1.47" fill="#fff" opacity="0.38"/>
  <circle cx="422" cy="1057" r="1.34" fill="#fff" opacity="0.31"/>
  <circle cx="0" cy="779" r="1.28" fill="#fff" opacity="0.25"/>
  <circle cx="446" cy="159" r="0.65" fill="#fff" opacity="0.43"/>
  <circle cx="311" cy="1073" r="2.13" fill="#fff" opacity="0.77"/>
  <circle cx="120" cy="5" r="1.93" fill="#fff" opacity="0.85"/>
  <circle cx="611" cy="1202" r="1.47" fill="#fff" opacity="0.80"/>
  <circle cx="14" cy="496" r="1.55" fill="#fff" opacity="0.29"/>
  <circle cx="454" cy="593" r="1.01" fill="#fff" opacity="0.82"/>
  <circle cx="429" cy="229" r="1.66" fill="#fff" opacity="0.67"/>
  <circle cx="10" cy="393" r="0.71" fill="#fff" opacity="0.45"/>

  <!-- soft halo behind the star symbol -->
  <circle cx="360" cy="640" r="260" fill="url(#halo)"/>

  <!-- 8-pointed star symbol -->
  <g transform="translate(360 640)">
    <path d="M 0 -130 L 22 -22 L 130 0 L 22 22 L 0 130 L -22 22 L -130 0 L -22 -22 Z"
          fill="url(#gold)" opacity="0.95"/>
    <path d="M 0 -90 L 12 -12 L 90 0 L 12 12 L 0 90 L -12 12 L -90 0 L -12 -12 Z"
          fill="#fff8e6" opacity="0.85"/>
    <circle cx="0" cy="0" r="6" fill="#fff"/>
  </g>

  <!-- brand wordmark -->
  <text x="360" y="927.9999999999999" text-anchor="middle"
        font-family="Georgia, 'Times New Roman', serif"
        font-size="62" font-style="italic" fill="url(#gold)" letter-spacing="2">
    li.astrology
  </text>

  <!-- divider -->
  <line x1="270" y1="992" x2="450" y2="992"
        stroke="url(#gold)" stroke-width="1" opacity="0.65"/>

  <!-- welcome message (Ukrainian) -->
  <text x="360" y="1120" text-anchor="middle"
        font-family="Helvetica, Arial, sans-serif"
        font-size="46" font-weight="300" fill="#f4ead6" letter-spacing="1">
    З поверненням
  </text>

  <!-- subtitle -->
  <text x="360" y="1216" text-anchor="middle"
        font-family="Helvetica, Arial, sans-serif"
        font-size="26" font-weight="300" fill="#9b8fae" letter-spacing="1">
    продовжуємо подорож
  </text>

  <!-- small decorative stars near bottom -->
  <g fill="url(#gold)" opacity="0.85">
    <circle cx="250" cy="1360" r="2"/>
    <circle cx="300" cy="1360" r="3"/>
    <circle cx="360" cy="1360" r="2.5"/>
    <circle cx="420" cy="1360" r="3"/>
    <circle cx="470" cy="1360" r="2"/>
  </g>
</svg>